<?xml version="1.0" encoding="UTF-8" standalone="no"?>
<!-- Created with Inkscape (http://www.inkscape.org/) -->

<svg
   width="210mm"
   height="210mm"
   viewBox="0 0 210 210"
   version="1.1"
   id="svg1"
   xml:space="preserve"
   sodipodi:docname="comuna.svg"
   inkscape:version="1.4 (86a8ad7, 2024-10-11)"
   xmlns:inkscape="http://www.inkscape.org/namespaces/inkscape"
   xmlns:sodipodi="http://sodipodi.sourceforge.net/DTD/sodipodi-0.dtd"
   xmlns="http://www.w3.org/2000/svg"
   xmlns:svg="http://www.w3.org/2000/svg"><sodipodi:namedview
     id="namedview1"
     pagecolor="#ffffff"
     bordercolor="#000000"
     borderopacity="0.25"
     inkscape:showpageshadow="2"
     inkscape:pageopacity="0.0"
     inkscape:pagecheckerboard="0"
     inkscape:deskcolor="#d1d1d1"
     inkscape:document-units="mm"
     inkscape:zoom="0.70710678"
     inkscape:cx="557.90725"
     inkscape:cy="482.95393"
     inkscape:window-width="1280"
     inkscape:window-height="961"
     inkscape:window-x="-8"
     inkscape:window-y="-8"
     inkscape:window-maximized="1"
     inkscape:current-layer="svg1" /><defs
     id="defs1" /><path
     d="m 107.0038,95.925411 c -7.441072,2.27e-4 -13.473135,6.032509 -13.473075,13.473599 v 4.71702 a 0.93549071,0.93549071 0 0 0 0.935344,0.93535 h 4.912361 a 0.91848494,0.91848494 0 0 0 0.91829,-0.91829 v -4.1243 c -3e-5,-4.55232 3.01625,-8.24277 6.73706,-8.24291 3.72091,-3e-5 6.73707,3.69048 6.73705,8.24291 v 4.13876 a 0.90365909,0.90365909 0 0 0 0.90382,0.90383 h 4.77129 a 1.0312412,1.0312412 0 0 0 1.03146,-1.03147 v -4.6209 c 6e-5,-7.44129 -6.03232,-13.473658 -13.4736,-13.473599 z"
     style="display:inline;opacity:1;stroke-width:0.264583"
     id="path13" /><path
     d="m 154.5363,95.925411 c -7.44109,2.27e-4 -13.47314,6.032509 -13.47308,13.473599 v 13.89941 c 0,1.91398 1.54059,3.45508 3.45457,3.45508 h 20.03754 c 1.91398,0 3.45457,-1.5411 3.45457,-3.45508 v -13.89941 c 6e-5,-7.44129 -6.03232,-13.473658 -13.4736,-13.473599 z m 0.03,5.840469 c 3.72091,-3e-5 6.73707,3.69048 6.73705,8.24291 v 8.50336 c 0,1.17092 -0.76996,2.11356 -1.72702,2.11356 h -10.01955 c -0.95706,0 -1.72754,-0.94264 -1.72754,-2.11356 v -8.50336 c -3e-5,-4.55232 3.01625,-8.24277 6.73706,-8.24291 z"
     style="display:inline;opacity:1;stroke-width:0.264583"
     id="path12" /><path
     d="m 59.678528,95.925411 c -7.441084,2.27e-4 -13.473138,6.032509 -13.47308,13.473599 v 13.89941 c 0,1.91398 1.540587,3.45508 3.45457,3.45508 h 20.037537 c 1.913982,0 3.454569,-1.5411 3.454569,-3.45508 v -13.89941 c 5.9e-5,-7.44129 -6.03231,-13.473658 -13.473596,-13.473599 z m 0.02997,5.840469 c 3.720909,-3e-5 6.737086,3.69048 6.737057,8.24291 v 8.50336 c 0,1.17092 -0.769968,2.11356 -1.727027,2.11356 H 54.698987 c -0.95706,0 -1.727543,-0.94264 -1.727543,-2.11356 v -8.50336 c -3e-5,-4.55232 3.016246,-8.24277 6.737056,-8.24291 z"
     style="display:inline;opacity:1;stroke-width:0.264583"
     id="path14" /><path
     d="m 106.88236,5.3996704 c -1.89182,0 -3.41477,1.5229528 -3.41477,3.4147787 V 48.34847 L 47.5387,77.454187 H 23.246126 c -1.63386,0 -2.949174,1.315313 -2.949174,2.949174 v 85.672289 c 0,1.63386 1.316458,3.0103 2.949174,2.94918 l 2.074809,-0.0775 c 1.56033,-0.0584 2.591573,-1.14503 2.591573,-2.66392 V 86.639673 c 0,-1.518886 1.222549,-2.741952 2.741435,-2.741952 H 183.67199 c 1.51889,0 2.74195,1.223066 2.74195,2.741952 v 79.643717 c 0,1.51889 1.4091,2.74144 2.92799,2.74144 h 1.15239 c 1.63386,0 2.94917,-1.31532 2.94917,-2.94918 V 80.403361 c 0,-1.633861 -1.31531,-2.949174 -2.94917,-2.949174 h -23.77995 l -56.2901,-29.293819 v -9.682613 c 11.16203,-3.896693 15.92694,1.321589 28.34142,1.184424 5.14331,-0.06904 8.50048,-2.623585 9.0873,-5.177979 0.38416,-6.354497 0.0172,-12.633836 0.0258,-18.950781 -0.27614,-2.537148 -1.65704,-3.693397 -4.14238,-3.469039 -3.42093,1.067694 -4.66782,2.246399 -9.17567,2.343009 -6.59526,-1.022594 -11.26478,-3.694667 -15.80627,-3.677811 -0.30277,0.0011 -0.60528,0.01399 -0.90744,0.04031 -2.28077,0.14106 -5.01033,0.294623 -7.4228,1.620056 V 8.8144491 c 0,-1.8918259 -1.52347,-3.4147787 -3.4153,-3.4147787 z m 11.99307,11.1874306 c 3.42052,0.0038 6.39217,1.146254 9.41545,2.158525 3.53114,1.607613 12.31847,1.156379 13.26327,0.128157 0.50308,-0.293451 -0.11028,11.363871 -0.13798,13.004375 -0.0257,1.522276 -1.35451,2.66285 -4.15478,2.6479 -3.79026,-0.126949 -6.89019,-0.737419 -9.29969,-1.830896 -5.20284,-2.636185 -10.95886,-2.669662 -17.53743,-0.0067 V 18.764229 c 2.05183,-1.208879 4.49264,-1.944133 6.95616,-2.105298 0.50842,-0.04964 1.00636,-0.07237 1.495,-0.07183 z m -11.74915,36.64996 46.53514,24.217126 H 60.59165 Z"
     style="display:inline;opacity:1;stroke-width:0.266502"
     id="path11" /><path
     d="m 47.449443,15.505809 c -12.910047,0 -23.303487,10.393625 -23.303487,23.303671 0,6.277659 2.470851,11.947512 6.480225,16.129376 -0.326038,0.116266 -0.650251,0.236146 -0.972551,0.359993 -3.975805,1.764064 -7.495918,4.075334 -10.482047,6.786761 -2.465329,-2.471202 -5.476231,-4.562958 -8.949325,-6.102675 -0.2569338,-0.114479 -0.5160287,-0.225979 -0.7766967,-0.333928 3.0125277,-3.170994 4.8684367,-7.452699 4.8684367,-12.192071 0,-9.806642 -7.8951191,-17.701643 -17.7017619,-17.701643 -9.8066431,0 -17.7012451,7.895001 -17.7012451,17.701643 0,4.768593 1.876607,9.075471 4.92218,12.25207 -0.247663,0.08832 -0.493633,0.179853 -0.738456,0.273929 -9.948512,4.414152 -16.208474,13.28494 -16.21038,22.972694 v 2.935028 c 0,0.640663 0.200002,1.231424 0.537435,1.719312 0.544563,0.787374 1.451709,1.303255 2.485636,1.303255 h 2.421041 36.0107219 c -0.00453,0.210245 -0.02528,0.418151 -0.025322,0.629005 v 3.863536 c 0,0.843407 0.2632335,1.621444 0.7074504,2.263729 0.7168956,1.036546 1.9110277,1.715378 3.2721517,1.715378 h 3.186886 63.631775 3.626135 c 1.361124,0 2.555256,-0.678832 3.272152,-1.715378 0.444217,-0.642285 0.70745,-1.420322 0.70745,-2.263729 v -3.863536 c -7.9e-5,-0.210846 -0.02075,-0.418769 -0.02532,-0.629005 h 36.077903 2.75435 c 1.03393,0 1.94108,-0.515881 2.48564,-1.303255 0.33743,-0.487888 0.53743,-1.078649 0.53743,-1.719312 v -2.935028 c -0.004,-9.689476 -6.26664,-18.560696 -16.21865,-22.972694 -0.25694,-0.114479 -0.51602,-0.225979 -0.77669,-0.333928 3.01253,-3.170994 4.86843,-7.452699 4.86843,-12.192071 0,-9.806642 -7.89512,-17.701643 -17.701757,-17.701643 -9.806642,0 -17.701762,7.895001 -17.701762,17.701643 0,4.768593 1.877124,9.075471 4.922697,12.25207 -0.247663,0.08832 -0.49415,0.179853 -0.738973,0.273929 -3.558775,1.579028 -6.634648,3.735519 -9.131742,6.288573 -3.031798,-2.794768 -6.632093,-5.167816 -10.703223,-6.972659 -0.338244,-0.150707 -0.679,-0.297062 -1.02216,-0.439172 3.96587,-4.174485 6.408911,-9.811006 6.408911,-16.050197 0,-12.910046 -10.39344,-23.303671 -23.303488,-23.303671 z m -0.413928,7.352816 c 8.836756,0 15.950447,7.114099 15.950447,15.950855 0,5.694416 -2.962889,10.660519 -7.428487,13.481556 -2.464243,1.556729 -5.37962,2.468807 -8.52196,2.468807 -2.995053,0 -5.782238,-0.831814 -8.171594,-2.256352 -4.660322,-2.77849 -7.77937,-7.852307 -7.77937,-13.694011 0,-8.836756 7.114208,-15.950855 15.950964,-15.950855 z M -3.7019566,31.3406 c 6.7125171,0 12.1160563,5.403819 12.1160563,12.116336 0,4.325554 -2.2504217,8.097734 -5.6425497,10.240631 -1.87187157,1.182512 -4.0865434,1.875704 -6.4735066,1.875704 -2.2750819,0 -4.3923866,-0.632297 -6.2073731,-1.714395 -3.5400423,-2.110578 -5.9092003,-5.964504 -5.9092003,-10.40194 0,-6.712517 5.404056,-12.116336 12.1165734,-12.116336 z m 102.1069456,0 c 6.712521,0 12.116061,5.403819 12.116061,12.116336 0,4.325554 -2.25095,8.097734 -5.64307,10.240631 -1.87188,1.182512 -4.08602,1.875704 -6.472991,1.875704 -2.275082,0 -4.392387,-0.632297 -6.207373,-1.714395 -3.540042,-2.110578 -5.9092,-5.964504 -5.9092,-10.40194 0,-6.712517 5.404056,-12.116336 12.116573,-12.116336 z M -11.431717,59.223368 c 2.4130031,1.2288 5.140516,1.93521 8.0439531,1.93521 2.88021878,0 5.5867383,-0.696239 7.9855591,-1.906686 4.1466181,1.39173 7.8106828,3.832647 10.6319088,7.043969 -3.046305,3.839294 -5.169584,8.208755 -6.1970374,12.853043 H -27.440559 c -0.06216,0 -0.112138,-0.04948 -0.112138,-0.111638 v -2.01734 c 0.745515,-3.738042 2.43219,-7.246457 4.914429,-10.22096 2.904232,-3.494762 6.792331,-6.123119 11.206551,-7.575598 z m 102.106945,0 c 2.413003,1.2288 5.140517,1.93521 8.043954,1.93521 2.880218,0 5.586738,-0.696239 7.985558,-1.906686 4.36464,1.464906 8.20593,4.081329 11.07994,7.547074 2.54638,3.065871 4.24865,6.693336 4.95061,10.550462 v 1.687838 c 0,0.06216 -0.05,0.111638 -0.11214,0.111638 H 85.997478 c -1.02196,-4.615359 -3.128031,-8.958164 -6.144845,-12.779766 2.860297,-3.276099 6.595192,-5.754763 10.822595,-7.14577 z m -53.815319,0.341797 c 3.176621,1.617664 6.767277,2.547494 10.589534,2.547494 3.791691,0 7.354587,-0.916614 10.512537,-2.510118 5.274001,1.770114 9.955014,4.829543 13.616223,8.846395 0.327574,0.359394 0.659767,0.714633 0.970483,1.089324 1.107719,1.333702 2.081275,2.754492 2.938839,4.233857 0.993547,1.713946 1.814663,3.512966 2.451013,5.376787 0.476571,1.395837 0.862109,2.822744 1.127063,4.27861 v 1.48571 0.735724 c 0,0.08183 -0.06597,0.147539 -0.147794,0.147539 H 15.784709 c -0.08183,0 -0.147794,-0.06571 -0.147794,-0.147539 v -0.735724 -1.919965 c 0.260477,-1.306044 0.613947,-2.588436 1.045414,-3.844355 0.706934,-2.057753 1.645365,-4.033713 2.785876,-5.90399 0.786173,-1.289213 1.659092,-2.532896 2.638599,-3.706654 0.464234,-0.558628 0.948691,-1.099144 1.450041,-1.623413 3.627635,-3.793467 8.197524,-6.669727 13.303064,-8.349682 z"
     style="display:inline;opacity:1;fill:#000000;stroke-width:0.458349"
     id="path3"
     transform="matrix(1,0,0,1.0507734,59.241719,101.82528)" /></svg>
